<svg xmlns="http://www.w3.org/2000/svg" viewBox="0 0 32 32" width="32" height="32" role="img" aria-label="Sparcoon">
  <path
    fill="#cb650b"
    d="M4.6 11.6 L3.6 5.6 L4.3 3.2 L6.4 2.6 L9.2 5.2 L11.6 8.4 L16 7.2 L20.4 8.4 L22.8 5.2
       L25.6 2.6 L27.7 3.2 L28.4 5.6 L27.4 11.6 L29.6 15.5 L26.5 22.5 L16 29.8 L5.5 22.5
       L2.4 15.5 Z
       M10.5 11.8 L8.8 14.3 L6.3 16 L8.8 17.7 L10.5 20.2 L12.2 17.7 L14.7 16 L12.2 14.3 Z
       M21.5 11.8 L19.8 14.3 L17.3 16 L19.8 17.7 L21.5 20.2 L23.2 17.7 L25.7 16 L23.2 14.3 Z"
  />
</svg>
